<?xml version="1.0" encoding="UTF-8"?>
<svg xmlns="http://www.w3.org/2000/svg" xmlns:xlink="http://www.w3.org/1999/xlink" viewBox="0 0 30 30" width="30px" height="30px">
<g id="surface62600745">
<path style="fill-rule:nonzero;fill:rgb(0%,0%,0%);fill-opacity:1;stroke-width:10;stroke-linecap:butt;stroke-linejoin:round;stroke:rgb(0%,0%,0%);stroke-opacity:1;stroke-miterlimit:10;" d="M 230.4 59.733333 C 233.466667 59.7 236.333333 61.3 237.9 63.966667 C 239.433333 66.633333 239.433333 69.9 237.9 72.566667 C 236.333333 75.233333 233.466667 76.833333 230.4 76.8 L 25.6 76.8 C 22.533333 76.833333 19.666667 75.233333 18.1 72.566667 C 16.566667 69.9 16.566667 66.633333 18.1 63.966667 C 19.666667 61.3 22.533333 59.7 25.6 59.733333 Z M 230.4 119.466667 C 233.466667 119.433333 236.333333 121.033333 237.9 123.7 C 239.433333 126.366667 239.433333 129.633333 237.9 132.3 C 236.333333 134.966667 233.466667 136.566667 230.4 136.533333 L 25.6 136.533333 C 22.533333 136.566667 19.666667 134.966667 18.1 132.3 C 16.566667 129.633333 16.566667 126.366667 18.1 123.7 C 19.666667 121.033333 22.533333 119.433333 25.6 119.466667 Z M 230.4 179.2 C 233.466667 179.166667 236.333333 180.766667 237.9 183.433333 C 239.433333 186.1 239.433333 189.366667 237.9 192.033333 C 236.333333 194.7 233.466667 196.3 230.4 196.266667 L 25.6 196.266667 C 22.533333 196.3 19.666667 194.7 18.1 192.033333 C 16.566667 189.366667 16.566667 186.1 18.1 183.433333 C 19.666667 180.766667 22.533333 179.166667 25.6 179.2 Z M 230.4 179.2 " transform="matrix(0.117188,0,0,0.117188,0,0)"/>
<path style=" stroke:none;fill-rule:nonzero;fill:rgb(100%,100%,100%);fill-opacity:1;" d="M 3 7 C 2.640625 6.996094 2.304688 7.183594 2.121094 7.496094 C 1.941406 7.808594 1.941406 8.191406 2.121094 8.503906 C 2.304688 8.816406 2.640625 9.003906 3 9 L 27 9 C 27.359375 9.003906 27.695312 8.816406 27.878906 8.503906 C 28.058594 8.191406 28.058594 7.808594 27.878906 7.496094 C 27.695312 7.183594 27.359375 6.996094 27 7 Z M 3 14 C 2.640625 13.996094 2.304688 14.183594 2.121094 14.496094 C 1.941406 14.808594 1.941406 15.191406 2.121094 15.503906 C 2.304688 15.816406 2.640625 16.003906 3 16 L 27 16 C 27.359375 16.003906 27.695312 15.816406 27.878906 15.503906 C 28.058594 15.191406 28.058594 14.808594 27.878906 14.496094 C 27.695312 14.183594 27.359375 13.996094 27 14 Z M 3 21 C 2.640625 20.996094 2.304688 21.183594 2.121094 21.496094 C 1.941406 21.808594 1.941406 22.191406 2.121094 22.503906 C 2.304688 22.816406 2.640625 23.003906 3 23 L 27 23 C 27.359375 23.003906 27.695312 22.816406 27.878906 22.503906 C 28.058594 22.191406 28.058594 21.808594 27.878906 21.496094 C 27.695312 21.183594 27.359375 20.996094 27 21 Z M 3 21 "/>
</g>
</svg>
