<svg xmlns="http://www.w3.org/2000/svg" xmlns:xlink="http://www.w3.org/1999/xlink" width="100" zoomAndPan="magnify" viewBox="0 0 75 74.999997" height="100" preserveAspectRatio="xMidYMid meet" version="1.0"><path fill="#8c52ff" d="M 45.472656 12.171875 C 45.4375 12.183594 45.410156 12.160156 45.402344 12.132812 L 45.367188 11.894531 C 45.363281 11.867188 45.335938 11.84375 45.304688 11.851562 L 45.148438 11.890625 C 45.136719 11.890625 45.125 11.894531 45.121094 11.90625 C 45.078125 11.953125 44.960938 12.109375 44.960938 12.183594 L 44.574219 11.679688 C 44.574219 11.679688 44.097656 11.542969 44.078125 11.566406 C 44.058594 11.582031 43.984375 12.039062 43.976562 12.105469 C 43.976562 12.117188 43.976562 12.121094 43.980469 12.128906 L 44.082031 12.59375 C 44.089844 12.597656 44.089844 12.605469 44.09375 12.609375 L 44.367188 12.925781 C 44.378906 12.9375 44.378906 12.949219 44.378906 12.964844 L 44.324219 13.261719 C 44.320312 13.277344 44.324219 13.289062 44.332031 13.296875 L 44.734375 13.976562 C 44.738281 13.992188 44.746094 14.007812 44.738281 14.019531 C 44.707031 14.109375 44.585938 14.46875 44.699219 14.453125 C 44.8125 14.433594 44.949219 14.328125 44.984375 14.292969 C 44.996094 14.292969 45 14.285156 45.007812 14.285156 C 45.058594 14.269531 45.261719 14.214844 45.285156 14.078125 C 45.300781 13.976562 45.359375 13.789062 45.402344 13.667969 C 45.414062 13.628906 45.476562 13.625 45.492188 13.667969 C 45.511719 13.699219 45.523438 13.726562 45.53125 13.75 C 45.550781 13.792969 45.699219 13.804688 45.765625 13.8125 C 45.789062 13.8125 45.804688 13.800781 45.816406 13.78125 L 45.925781 13.578125 C 45.945312 13.535156 46.015625 13.542969 46.019531 13.59375 L 46.054688 13.90625 C 46.054688 13.929688 46.042969 13.945312 46.03125 13.957031 L 45.4375 14.316406 C 45.4375 14.316406 45.4375 14.320312 45.429688 14.320312 C 45.390625 14.339844 44.886719 14.566406 44.886719 14.617188 C 44.886719 14.660156 45.070312 14.996094 45.121094 15.085938 C 45.125 15.097656 45.136719 15.109375 45.152344 15.109375 L 45.4375 15.164062 C 45.480469 15.171875 45.492188 15.222656 45.464844 15.25 L 45.339844 15.378906 C 45.335938 15.386719 45.316406 15.390625 45.304688 15.390625 L 45 15.386719 C 44.960938 15.386719 44.9375 15.425781 44.957031 15.460938 L 45.101562 15.691406 C 45.109375 15.699219 45.113281 15.703125 45.121094 15.710938 L 45.675781 16.070312 C 45.6875 16.082031 45.691406 16.09375 45.699219 16.105469 L 45.742188 16.464844 C 45.75 16.484375 45.765625 16.503906 45.789062 16.507812 L 45.933594 16.53125 C 45.957031 16.53125 45.980469 16.519531 45.988281 16.496094 C 46.03125 16.382812 46.171875 16.027344 46.285156 15.765625 C 46.429688 15.453125 46.617188 14.910156 46.617188 14.910156 L 46.90625 13.992188 C 46.90625 13.988281 46.90625 13.988281 46.90625 13.980469 C 46.925781 13.941406 47.125 13.539062 47.195312 13.5 C 47.238281 13.472656 47.359375 13.402344 47.414062 13.367188 C 47.429688 13.359375 47.441406 13.328125 47.429688 13.304688 L 47.289062 12.863281 C 47.285156 12.851562 47.273438 12.84375 47.261719 12.835938 L 46.71875 12.582031 C 46.707031 12.574219 46.695312 12.5625 46.6875 12.546875 C 46.667969 12.457031 46.585938 12.128906 46.570312 12.078125 C 46.558594 12.039062 46.484375 12.007812 46.445312 12.003906 C 46.429688 11.996094 46.417969 11.984375 46.410156 11.976562 L 46.109375 11.316406 C 46.101562 11.292969 46.082031 11.285156 46.058594 11.289062 C 45.957031 11.292969 45.65625 11.324219 45.636719 11.386719 C 45.613281 11.453125 45.65625 11.925781 45.667969 12.066406 C 45.667969 12.089844 45.65625 12.109375 45.636719 12.117188 L 45.472656 12.171875 " fill-opacity="1" fill-rule="nonzero"/><path fill="#8c52ff" d="M 55.292969 62.730469 C 55.308594 62.730469 55.320312 62.730469 55.335938 62.726562 L 55.519531 62.605469 C 55.527344 62.605469 55.535156 62.59375 55.539062 62.585938 L 55.902344 61.625 C 55.902344 61.625 55.902344 61.621094 55.902344 61.613281 L 56.179688 59.824219 C 56.1875 59.8125 56.191406 59.800781 56.203125 59.789062 L 56.753906 59.457031 C 56.765625 59.449219 56.777344 59.433594 56.777344 59.421875 L 56.820312 58.84375 C 56.820312 58.828125 56.816406 58.808594 56.804688 58.800781 L 56.128906 58.292969 C 56.105469 58.277344 56.085938 58.277344 56.066406 58.300781 L 55.808594 58.566406 C 55.800781 58.578125 55.789062 58.582031 55.777344 58.582031 L 55.625 58.617188 C 55.601562 58.625 55.585938 58.640625 55.585938 58.664062 L 55.5625 58.84375 C 55.558594 58.867188 55.570312 58.890625 55.585938 58.902344 L 55.6875 58.957031 C 55.710938 58.96875 55.722656 58.996094 55.710938 59.019531 L 55.652344 59.140625 C 55.648438 59.148438 55.640625 59.160156 55.632812 59.167969 L 54.921875 59.5 L 54.566406 59.664062 C 54.550781 59.675781 54.539062 59.699219 54.539062 59.722656 L 54.679688 60.679688 C 54.679688 60.691406 54.679688 60.695312 54.671875 60.707031 L 54.457031 61.171875 C 54.453125 61.183594 54.445312 61.195312 54.433594 61.203125 C 54.390625 61.21875 54.28125 61.269531 54.253906 61.296875 C 54.214844 61.335938 54.21875 61.625 54.230469 61.730469 C 54.242188 61.808594 54.382812 61.902344 54.453125 61.945312 C 54.46875 61.957031 54.480469 61.972656 54.476562 61.996094 C 54.457031 62.078125 54.425781 62.273438 54.445312 62.359375 C 54.464844 62.453125 55.160156 62.6875 55.292969 62.730469 " fill-opacity="1" fill-rule="nonzero"/><path fill="#8c52ff" d="M 14.296875 20.363281 C 14.296875 20.351562 14.296875 20.34375 14.304688 20.339844 L 14.535156 20.011719 C 14.558594 19.976562 14.53125 19.925781 14.484375 19.929688 L 13.902344 20.027344 C 13.890625 20.027344 13.882812 20.03125 13.878906 20.03125 L 12.898438 20.644531 C 12.886719 20.652344 12.875 20.667969 12.875 20.683594 C 12.875 20.886719 12.863281 22.136719 12.863281 22.21875 C 12.863281 22.28125 13.152344 22.667969 13.304688 22.867188 C 13.339844 22.90625 13.300781 22.960938 13.253906 22.945312 C 13.203125 22.933594 13.171875 22.996094 13.203125 23.03125 L 13.667969 23.484375 C 13.6875 23.5 14.46875 24.113281 14.824219 24.113281 C 15.140625 24.113281 16.175781 23.835938 16.394531 23.777344 C 16.417969 23.773438 16.433594 23.75 16.429688 23.726562 L 16.394531 23.347656 C 16.390625 23.300781 16.441406 23.273438 16.472656 23.300781 L 16.707031 23.457031 C 16.710938 23.457031 16.71875 23.46875 16.722656 23.472656 L 17.046875 24.125 C 17.046875 24.136719 17.050781 24.140625 17.0625 24.148438 L 17.628906 24.527344 C 17.636719 24.53125 17.640625 24.542969 17.648438 24.550781 L 18.054688 25.472656 C 18.0625 25.480469 18.0625 25.484375 18.0625 25.488281 C 18.066406 25.582031 18.101562 26.292969 18.089844 26.367188 C 18.078125 26.441406 17.761719 26.804688 17.730469 26.839844 C 17.730469 26.839844 17.726562 26.839844 17.726562 26.84375 L 16.632812 27.800781 C 16.617188 27.8125 16.609375 27.839844 16.621094 27.863281 L 16.679688 27.972656 C 16.933594 28.160156 17.195312 28.347656 17.453125 28.53125 L 18.144531 28.480469 C 18.15625 28.480469 18.167969 28.480469 18.179688 28.492188 L 18.917969 29.128906 C 18.917969 29.132812 18.921875 29.132812 18.921875 29.132812 L 19.925781 29.683594 C 19.929688 29.683594 19.929688 29.683594 19.9375 29.683594 L 20.722656 29.914062 C 20.769531 29.925781 20.808594 29.871094 20.773438 29.832031 L 20 28.953125 C 19.96875 28.925781 19.992188 28.871094 20.03125 28.867188 L 20.304688 28.851562 C 20.3125 28.851562 20.316406 28.851562 20.328125 28.855469 L 20.929688 29.105469 C 20.96875 29.117188 21.011719 29.082031 20.996094 29.042969 L 20.578125 27.800781 C 20.570312 27.789062 20.566406 27.785156 20.558594 27.78125 L 20.039062 27.304688 C 20 27.273438 20.027344 27.210938 20.078125 27.21875 L 21.03125 27.335938 C 21.046875 27.335938 21.0625 27.347656 21.070312 27.367188 C 21.117188 27.480469 21.3125 27.910156 21.402344 27.6875 C 21.496094 27.460938 22.050781 26.363281 22.179688 26.101562 C 22.199219 26.074219 22.179688 26.039062 22.152344 26.027344 L 21.207031 25.777344 C 21.199219 25.777344 21.195312 25.777344 21.195312 25.773438 L 20.316406 25.230469 C 20.300781 25.21875 19.636719 24.855469 19.6875 24.664062 C 19.726562 24.507812 19.949219 24.378906 20.039062 24.332031 C 20.0625 24.324219 20.066406 24.300781 20.0625 24.277344 L 19.929688 23.703125 C 19.929688 23.703125 19.839844 23.332031 19.765625 23.460938 C 19.6875 23.585938 19.199219 24.152344 19.164062 23.960938 C 19.125 23.765625 19.175781 23.675781 19.300781 23.292969 C 19.382812 23.070312 19.402344 22.945312 19.410156 22.890625 C 19.410156 22.859375 19.386719 22.832031 19.359375 22.832031 L 18.53125 22.832031 C 18.484375 22.832031 18.464844 22.785156 18.484375 22.753906 L 18.621094 22.554688 C 18.632812 22.539062 18.632812 22.515625 18.621094 22.496094 L 18.367188 22.105469 C 18.351562 22.078125 18.308594 22.078125 18.289062 22.101562 L 18.191406 22.214844 C 18.175781 22.230469 18.152344 22.238281 18.128906 22.226562 L 17.804688 22.054688 C 17.792969 22.054688 17.789062 22.050781 17.785156 22.042969 C 17.753906 22 17.613281 21.8125 17.613281 21.734375 C 17.613281 21.648438 17.296875 21.058594 17.238281 20.957031 C 17.234375 20.945312 17.234375 20.933594 17.234375 20.921875 C 17.246094 20.855469 17.257812 20.570312 16.746094 20.351562 C 16.15625 20.09375 15.742188 20.066406 15.742188 20.105469 C 15.742188 20.144531 15.875 20.554688 15.894531 20.605469 C 15.917969 20.652344 16.441406 20.933594 16.546875 20.992188 C 16.558594 20.996094 16.566406 21.007812 16.570312 21.023438 L 16.621094 21.234375 C 16.628906 21.25 16.621094 21.269531 16.609375 21.28125 L 16.265625 21.714844 C 16.242188 21.746094 16.203125 21.738281 16.179688 21.710938 L 16.09375 21.574219 C 16.078125 21.550781 16.042969 21.546875 16.019531 21.5625 L 15.765625 21.765625 C 15.730469 21.796875 15.679688 21.773438 15.679688 21.726562 L 15.679688 21.246094 L 15.742188 20.671875 C 15.742188 20.660156 15.742188 20.652344 15.738281 20.644531 L 15.414062 20.113281 C 15.402344 20.101562 15.390625 20.089844 15.375 20.089844 L 14.949219 20.03125 C 14.933594 20.027344 14.914062 20.039062 14.90625 20.050781 L 14.648438 20.355469 C 14.644531 20.363281 14.644531 20.367188 14.636719 20.371094 L 14.417969 21.09375 C 14.417969 21.097656 14.410156 21.109375 14.417969 21.117188 L 14.511719 21.929688 C 14.511719 21.929688 14.511719 21.9375 14.519531 21.941406 C 14.546875 22.011719 14.769531 22.554688 14.503906 22.425781 C 14.253906 22.300781 14.164062 22.105469 14.144531 22.074219 C 14.144531 22.066406 14.144531 22.0625 14.144531 22.0625 L 14.054688 21.371094 C 14.054688 21.363281 14.054688 21.359375 14.054688 21.351562 L 14.296875 20.363281 " fill-opacity="1" fill-rule="nonzero"/><path fill="#8c52ff" d="M 20.617188 30.554688 L 20.589844 30.601562 C 20.785156 30.71875 20.980469 30.839844 21.175781 30.957031 L 20.691406 30.542969 C 20.667969 30.523438 20.628906 30.527344 20.617188 30.554688 " fill-opacity="1" fill-rule="nonzero"/><path fill="#8c52ff" d="M 20.746094 39.289062 L 21.273438 39.027344 C 21.121094 38.941406 20.96875 38.863281 20.816406 38.785156 L 20.679688 39.226562 C 20.667969 39.265625 20.714844 39.304688 20.746094 39.289062 " fill-opacity="1" fill-rule="nonzero"/><path fill="#8c52ff" d="M 14.359375 25.199219 C 14.191406 25.296875 13.929688 25.433594 13.707031 25.550781 C 14.082031 25.890625 14.480469 26.230469 14.898438 26.582031 L 15.351562 26.25 C 15.359375 26.242188 15.363281 26.230469 15.363281 26.226562 L 15.886719 25.007812 C 15.890625 24.984375 15.886719 24.964844 15.867188 24.945312 C 15.6875 24.816406 14.8125 24.164062 14.707031 24.164062 C 14.59375 24.164062 14.707031 25.007812 14.359375 25.199219 " fill-opacity="1" fill-rule="nonzero"/><path fill="#8c52ff" d="M 12.558594 24.355469 C 12.558594 24.214844 12.367188 23.949219 12.332031 23.902344 C 12.328125 23.898438 12.328125 23.890625 12.320312 23.886719 C 12.304688 23.808594 12.128906 23.171875 12.058594 22.742188 C 11.980469 22.28125 11.441406 21.9375 11.328125 21.9375 C 11.25 21.9375 11 22.304688 10.859375 22.53125 C 11.328125 23.144531 11.894531 23.785156 12.5625 24.464844 C 12.558594 24.417969 12.558594 24.378906 12.558594 24.355469 " fill-opacity="1" fill-rule="nonzero"/><path fill="#8c52ff" d="M 13.0625 24.957031 C 13.152344 25.042969 13.25 25.132812 13.347656 25.21875 L 13.402344 24.703125 C 13.402344 24.695312 13.402344 24.394531 13.25 24.46875 C 13.148438 24.519531 13.132812 24.78125 13.0625 24.957031 " fill-opacity="1" fill-rule="nonzero"/><path fill="#8c52ff" d="M 11.945312 31.394531 C 15.804688 34.476562 20.695312 37.367188 26.214844 39.882812 C 25.875 39.457031 25.757812 38.890625 25.925781 38.351562 C 26.140625 37.652344 26.78125 37.179688 27.511719 37.179688 L 28.398438 37.191406 L 28.425781 36.28125 C 23.023438 33.859375 18.277344 31.070312 14.566406 28.113281 C 9.355469 23.964844 6.777344 19.828125 7.664062 17.050781 C 7.996094 16.003906 8.820312 15.089844 10.058594 14.339844 C 12.078125 11.964844 14.390625 9.84375 16.933594 8.035156 C 9.929688 8.863281 5.339844 11.410156 3.820312 15.324219 C 3.816406 15.339844 3.804688 15.359375 3.796875 15.375 C 3.753906 15.503906 3.703125 15.640625 3.660156 15.777344 C 3.609375 15.925781 3.570312 16.066406 3.539062 16.203125 C 2.371094 20.753906 5.339844 26.125 11.945312 31.394531 " fill-opacity="1" fill-rule="nonzero"/><path fill="#8c52ff" d="M 56.039062 50.304688 C 56.054688 50.304688 56.003906 50.292969 56.003906 50.292969 L 56.039062 50.304688 " fill-opacity="1" fill-rule="nonzero"/><path fill="#8c52ff" d="M 37.378906 48.984375 C 37.640625 48.605469 37.847656 48.195312 37.996094 47.761719 L 38.574219 46.09375 L 37.21875 45.664062 L 35.644531 47.019531 C 35.632812 47.027344 35.628906 47.039062 35.628906 47.050781 C 35.605469 47.265625 35.433594 49.09375 35.628906 49.285156 C 35.742188 49.398438 35.949219 50.152344 36.113281 50.796875 L 37.378906 48.984375 " fill-opacity="1" fill-rule="nonzero"/><path fill="#8c52ff" d="M 44.988281 59.4375 C 44.875 59.558594 43.992188 60.539062 44.230469 61.066406 C 44.492188 61.625 45.613281 63.574219 45.875 64.289062 C 46.105469 64.9375 46.875 66.007812 47.023438 66.207031 C 47.039062 66.222656 47.0625 66.234375 47.085938 66.222656 L 48.988281 65.371094 C 48.996094 65.367188 49 65.367188 49 65.359375 L 51.085938 63.378906 C 51.09375 63.371094 51.097656 63.367188 51.097656 63.359375 C 51.175781 63.183594 52.378906 60.492188 52.378906 60.292969 C 52.378906 60.101562 53.246094 58.945312 53.34375 58.820312 C 53.347656 58.816406 53.347656 58.804688 53.351562 58.800781 L 53.652344 56.105469 C 53.652344 56.101562 53.660156 56.097656 53.664062 56.085938 C 53.789062 55.914062 55.359375 53.773438 55.601562 53.28125 C 55.824219 52.835938 56.582031 51.472656 56.78125 51.113281 C 56.804688 51.082031 53.601562 50.464844 53.601562 50.464844 C 52.722656 50.441406 51.847656 50.296875 51.007812 50.03125 L 47.378906 48.882812 C 47.421875 49.023438 47.449219 49.175781 47.464844 49.335938 C 47.5 49.75 47.441406 50.207031 47.296875 50.667969 C 46.925781 51.835938 46.140625 52.558594 45.25 52.558594 C 45.089844 52.558594 44.925781 52.539062 44.769531 52.484375 L 44.34375 52.355469 C 44.042969 52.257812 43.644531 52.125 43.226562 51.964844 L 42.261719 52.921875 L 43.148438 52.921875 C 43.152344 52.921875 43.160156 52.921875 43.164062 52.921875 L 43.894531 53.21875 C 43.917969 53.222656 43.929688 53.238281 43.929688 53.257812 L 44.230469 55.320312 C 44.230469 55.324219 44.234375 55.332031 44.234375 55.335938 L 45.199219 57.105469 C 45.203125 57.117188 45.203125 57.128906 45.203125 57.132812 L 45.007812 59.410156 C 45 59.421875 45 59.433594 44.988281 59.4375 " fill-opacity="1" fill-rule="nonzero"/><path fill="#8c52ff" d="M 19.710938 66.867188 C 12.496094 61.976562 7.253906 54.390625 5.445312 45.566406 L 7.664062 46.472656 C 7.675781 46.480469 7.679688 46.484375 7.683594 46.496094 L 8.25 47.429688 C 8.25 47.4375 8.257812 47.449219 8.257812 47.453125 C 8.269531 47.574219 8.417969 48.671875 8.5625 48.671875 C 8.710938 48.671875 9.441406 48.996094 9.480469 49.019531 C 9.488281 49.019531 9.488281 49.019531 9.488281 49.019531 L 11.171875 49.589844 C 11.171875 49.589844 11.175781 49.589844 11.175781 49.597656 L 12.710938 50.441406 L 13.855469 50.972656 C 13.863281 50.972656 13.863281 50.980469 13.867188 50.980469 L 14.460938 51.464844 C 14.484375 51.488281 14.484375 51.535156 14.457031 51.550781 L 14.070312 51.785156 C 14.042969 51.804688 14.042969 51.839844 14.066406 51.863281 L 15.089844 52.820312 L 15.730469 53.460938 C 15.738281 53.464844 15.742188 53.476562 15.75 53.488281 L 15.9375 55.023438 C 15.9375 55.042969 15.929688 55.054688 15.925781 55.066406 L 15.070312 56.292969 C 15.058594 56.304688 15.058594 56.324219 15.0625 56.339844 C 15.121094 56.515625 15.5 57.636719 15.742188 57.851562 C 16.007812 58.078125 17.441406 59.621094 17.511719 59.695312 C 17.511719 59.695312 17.511719 59.695312 17.515625 59.699219 C 17.585938 59.757812 19.011719 60.890625 19.164062 61.117188 C 19.300781 61.328125 19.855469 62.078125 19.953125 62.210938 C 19.964844 62.222656 19.96875 62.238281 19.964844 62.253906 L 19.320312 64.484375 C 19.320312 64.492188 19.320312 64.5 19.320312 64.503906 Z M 24.890625 7.839844 C 24.839844 7.839844 24.789062 7.820312 24.730469 7.789062 C 24.828125 7.742188 24.929688 7.695312 25.03125 7.652344 C 25.058594 7.757812 25.03125 7.839844 24.890625 7.839844 Z M 14.496094 15.226562 L 14.222656 15.285156 C 14.214844 15.289062 14.203125 15.285156 14.191406 15.273438 C 14.269531 15.1875 14.355469 15.097656 14.441406 15.011719 L 14.53125 15.152344 C 14.546875 15.183594 14.53125 15.222656 14.496094 15.226562 Z M 13.605469 15.929688 L 13.539062 15.964844 C 13.566406 15.929688 13.59375 15.894531 13.628906 15.863281 C 13.640625 15.890625 13.628906 15.917969 13.605469 15.929688 Z M 34.195312 2.742188 C 23.703125 4.023438 14.625 9.765625 8.902344 18.019531 C 8.859375 18.761719 9.117188 19.761719 9.800781 20.960938 C 10.511719 19.8125 11.285156 18.703125 12.121094 17.640625 L 12.167969 17.804688 C 12.171875 17.8125 12.171875 17.816406 12.171875 17.824219 L 12.132812 18.703125 C 12.132812 18.710938 12.140625 18.730469 12.152344 18.742188 C 12.246094 18.820312 12.667969 19.171875 12.710938 19.171875 C 12.75 19.171875 13.007812 18.972656 13.132812 18.875 C 13.160156 18.855469 13.203125 18.871094 13.210938 18.90625 C 13.234375 19.011719 13.261719 19.175781 13.261719 19.222656 C 13.261719 19.285156 14.824219 19.285156 14.859375 19.285156 C 14.894531 19.285156 15.050781 19.085938 15.113281 19 C 15.132812 18.980469 15.160156 18.980469 15.183594 18.992188 L 15.585938 19.21875 C 15.601562 19.226562 15.628906 19.226562 15.640625 19.210938 L 16.289062 18.683594 C 16.308594 18.667969 16.308594 18.628906 16.289062 18.605469 L 16.066406 18.429688 C 16.054688 18.417969 16.050781 18.414062 16.050781 18.402344 L 15.894531 17.765625 C 15.890625 17.75 15.875 17.730469 15.855469 17.730469 C 15.71875 17.699219 15.199219 17.585938 15.140625 17.585938 C 15.082031 17.585938 14.355469 17.90625 14.28125 17.9375 C 14.277344 17.941406 14.269531 17.941406 14.265625 17.941406 L 13.816406 18.003906 C 13.804688 18.003906 13.792969 18.003906 13.78125 18 L 13.367188 17.804688 C 13.363281 17.800781 13.363281 17.800781 13.359375 17.800781 L 13.015625 17.703125 C 13.011719 17.699219 13 17.691406 12.996094 17.6875 L 12.820312 17.503906 C 12.820312 17.496094 12.8125 17.488281 12.808594 17.476562 L 12.757812 17.226562 C 12.75 17.207031 12.761719 17.183594 12.785156 17.171875 L 13.253906 16.960938 C 13.253906 16.957031 13.261719 16.957031 13.265625 16.949219 C 13.296875 16.921875 13.449219 16.796875 13.738281 16.84375 C 14.054688 16.894531 14.207031 17.058594 14.359375 17.109375 C 14.511719 17.160156 14.582031 17.085938 14.605469 16.984375 C 14.625 16.90625 14.671875 16.910156 14.695312 16.917969 C 14.707031 16.917969 14.710938 16.917969 14.722656 16.917969 L 15.070312 16.820312 C 15.074219 16.8125 15.085938 16.8125 15.089844 16.820312 C 15.171875 16.832031 15.636719 16.921875 15.691406 16.957031 C 15.742188 16.984375 15.824219 17.144531 15.855469 17.214844 C 15.867188 17.238281 15.890625 17.25 15.90625 17.246094 L 16.265625 17.195312 C 16.277344 17.195312 16.289062 17.1875 16.292969 17.183594 L 16.621094 16.882812 C 16.628906 16.882812 16.628906 16.875 16.632812 16.871094 L 16.882812 16.480469 C 16.894531 16.46875 16.894531 16.445312 16.882812 16.433594 C 16.84375 16.339844 16.691406 16.027344 16.667969 16 C 16.648438 15.96875 16.515625 15.980469 16.445312 15.992188 C 16.417969 15.992188 16.394531 15.976562 16.390625 15.953125 L 16.328125 15.6875 C 16.320312 15.667969 16.328125 15.660156 16.332031 15.648438 L 16.679688 15.148438 C 16.683594 15.132812 16.691406 15.113281 16.683594 15.101562 L 16.609375 14.925781 C 16.605469 14.914062 16.605469 14.898438 16.609375 14.886719 L 16.707031 14.644531 C 16.710938 14.625 16.730469 14.617188 16.75 14.617188 L 17.289062 14.617188 C 17.308594 14.617188 17.324219 14.605469 17.335938 14.585938 L 17.554688 14.164062 C 17.5625 14.15625 17.5625 14.144531 17.5625 14.140625 L 17.574219 13.792969 L 17.574219 13.277344 C 17.574219 13.261719 17.566406 13.25 17.5625 13.238281 L 17.398438 13.078125 C 17.375 13.058594 17.382812 13.023438 17.402344 13.007812 L 17.617188 12.84375 C 17.648438 12.820312 17.640625 12.773438 17.613281 12.757812 L 17.351562 12.609375 C 17.3125 12.585938 17.324219 12.523438 17.371094 12.511719 L 17.535156 12.492188 C 17.535156 12.484375 17.539062 12.484375 17.546875 12.484375 L 17.777344 12.394531 C 17.789062 12.386719 17.792969 12.382812 17.800781 12.371094 L 17.976562 12.09375 C 17.980469 12.082031 17.992188 12.078125 18.003906 12.070312 L 18.480469 11.914062 C 18.503906 11.90625 18.519531 11.878906 18.515625 11.855469 C 18.496094 11.777344 18.46875 11.617188 18.496094 11.554688 C 18.53125 11.476562 18.722656 11.363281 18.78125 11.328125 C 18.785156 11.324219 18.796875 11.316406 18.796875 11.304688 C 18.808594 11.289062 18.820312 11.253906 18.835938 11.214844 C 19.234375 10.925781 19.636719 10.648438 20.042969 10.375 L 20.042969 10.671875 C 20.042969 10.675781 20.050781 10.683594 20.050781 10.6875 L 20.277344 11.277344 C 20.277344 11.285156 20.277344 11.289062 20.277344 11.292969 L 20.316406 12.34375 C 20.316406 12.359375 20.304688 12.378906 20.292969 12.386719 L 19.207031 13.136719 C 19.199219 13.140625 19.199219 13.140625 19.199219 13.140625 C 19.15625 13.175781 18.164062 13.992188 18.164062 14.140625 C 18.164062 14.285156 19.890625 15.035156 20.039062 15.097656 C 20.042969 15.097656 20.050781 15.097656 20.054688 15.097656 L 20.691406 15.097656 C 20.742188 15.097656 20.765625 15.164062 20.722656 15.195312 L 19.597656 15.976562 C 19.589844 15.980469 19.578125 15.980469 19.566406 15.980469 L 18.28125 15.980469 C 18.238281 15.980469 18.214844 16.039062 18.246094 16.070312 C 18.429688 16.257812 18.867188 16.683594 19.046875 16.710938 C 19.257812 16.746094 19.640625 17.210938 19.726562 17.308594 C 19.734375 17.320312 19.75 17.324219 19.761719 17.324219 L 22.808594 17.324219 C 22.832031 17.324219 22.855469 17.339844 22.859375 17.363281 L 23.347656 19.398438 L 23.347656 19.402344 L 23.765625 20.660156 C 23.773438 20.667969 23.773438 20.671875 23.773438 20.679688 C 23.765625 20.757812 23.738281 21.371094 23.773438 21.976562 C 23.800781 22.492188 24.027344 22.289062 24.117188 22.179688 C 24.140625 22.152344 24.175781 22.15625 24.199219 22.179688 L 24.941406 23.160156 C 24.96875 23.195312 24.941406 23.242188 24.902344 23.242188 L 24.453125 23.242188 C 24.4375 23.242188 24.417969 23.25 24.414062 23.269531 L 23.878906 24.148438 C 23.863281 24.175781 23.878906 24.210938 23.910156 24.21875 L 24.449219 24.390625 C 24.457031 24.390625 24.46875 24.390625 24.480469 24.386719 L 24.929688 24.164062 C 24.964844 24.148438 25.003906 24.167969 25.003906 24.210938 L 25.003906 24.878906 C 25.003906 24.890625 24.996094 24.902344 24.992188 24.90625 L 24.4375 25.535156 C 24.429688 25.539062 24.425781 25.550781 24.425781 25.5625 L 24.3125 27.382812 C 24.3125 27.386719 24.3125 27.394531 24.3125 27.398438 L 25.304688 30.214844 C 25.308594 30.226562 25.3125 30.238281 25.332031 30.246094 L 26.789062 30.914062 C 26.800781 30.917969 26.808594 30.929688 26.816406 30.945312 C 26.855469 31.078125 27.089844 31.78125 27.230469 31.117188 C 27.378906 30.421875 28.296875 27.902344 28.375 27.675781 C 28.378906 27.664062 28.386719 27.65625 28.398438 27.648438 C 28.523438 27.574219 29.390625 27.042969 29.535156 26.96875 C 29.683594 26.894531 30.363281 25.972656 30.414062 25.898438 C 30.414062 25.890625 30.421875 25.890625 30.421875 25.890625 L 31.253906 25.171875 C 31.257812 25.167969 31.265625 25.160156 31.269531 25.160156 L 33.40625 24.515625 C 33.410156 24.507812 33.417969 24.507812 33.421875 24.503906 L 34.347656 23.835938 C 34.363281 23.824219 34.371094 23.808594 34.371094 23.789062 L 34.148438 22.074219 C 34.144531 22.0625 34.136719 22.042969 34.132812 22.039062 L 33.503906 21.484375 C 33.496094 21.476562 33.492188 21.472656 33.484375 21.460938 L 33.242188 20.339844 C 33.230469 20.300781 33.269531 20.265625 33.308594 20.28125 L 34.640625 20.785156 L 34.640625 19.976562 C 34.640625 19.953125 34.628906 19.9375 34.609375 19.929688 C 34.496094 19.890625 34.144531 19.753906 34.335938 19.589844 C 34.523438 19.4375 34.792969 19.320312 34.878906 19.285156 C 34.902344 19.277344 34.914062 19.261719 34.914062 19.238281 C 34.917969 19.097656 34.949219 18.542969 34.914062 18.441406 C 34.875 18.332031 34.917969 17.613281 34.929688 17.527344 C 34.929688 17.523438 34.929688 17.515625 34.925781 17.511719 L 34.726562 16.734375 C 34.722656 16.722656 34.710938 16.710938 34.699219 16.699219 L 34.386719 16.570312 C 34.347656 16.554688 34.339844 16.503906 34.375 16.480469 L 34.671875 16.296875 C 34.675781 16.292969 34.6875 16.292969 34.691406 16.289062 C 34.785156 16.28125 35.332031 16.234375 35.332031 16.101562 C 35.332031 15.957031 35.074219 15.554688 35.03125 15.492188 C 35.027344 15.488281 35.027344 15.484375 35.019531 15.476562 C 34.960938 15.4375 34.601562 15.203125 34.601562 15.097656 C 34.601562 15.007812 34.628906 14.621094 34.640625 14.492188 C 34.640625 14.460938 34.625 14.445312 34.601562 14.441406 L 34.207031 14.34375 C 34.171875 14.339844 34.15625 14.304688 34.171875 14.277344 L 34.867188 12.84375 C 34.875 12.835938 34.875 12.832031 34.875 12.824219 L 35.027344 11.800781 C 35.027344 11.800781 35.027344 11.792969 35.027344 11.789062 L 35.53125 10.5 C 35.535156 10.496094 35.535156 10.488281 35.542969 10.484375 L 37.117188 8.859375 C 37.136719 8.847656 37.136719 8.828125 37.136719 8.8125 L 36.800781 7.386719 C 36.796875 7.355469 36.777344 7.339844 36.75 7.34375 L 35.554688 7.453125 C 35.542969 7.457031 35.53125 7.457031 35.527344 7.46875 L 33.445312 9.605469 C 33.410156 9.644531 33.355469 9.613281 33.359375 9.566406 L 33.640625 7.789062 C 33.644531 7.769531 33.640625 7.757812 33.628906 7.746094 L 33.195312 7.214844 C 33.175781 7.179688 33.128906 7.1875 33.113281 7.21875 C 33 7.46875 32.617188 8.269531 32.492188 8.304688 C 32.359375 8.335938 32.019531 8.335938 31.933594 8.335938 C 31.921875 8.335938 31.910156 8.335938 31.898438 8.324219 L 31.144531 7.726562 L 30.554688 7.726562 C 30.511719 7.726562 30.488281 7.667969 30.527344 7.632812 L 31.089844 7.164062 C 31.101562 7.152344 31.117188 7.148438 31.132812 7.152344 C 31.320312 7.1875 32.617188 7.394531 32.761719 7.148438 C 32.894531 6.910156 33.761719 6.300781 33.957031 6.171875 C 33.972656 6.160156 33.980469 6.132812 33.972656 6.109375 L 33.503906 5.179688 C 33.503906 5.167969 33.492188 5.167969 33.480469 5.164062 C 35.191406 4.898438 36.949219 4.753906 38.734375 4.753906 C 50.128906 4.753906 60.226562 10.40625 66.398438 19.042969 C 66.09375 19.425781 65.875 19.738281 65.847656 19.777344 C 65.847656 19.785156 65.84375 19.789062 65.84375 19.789062 L 65.34375 21.132812 C 65.339844 21.15625 65.316406 21.167969 65.292969 21.167969 L 63.378906 20.917969 C 63.355469 20.917969 63.339844 20.894531 63.339844 20.867188 L 63.339844 20.167969 C 63.339844 20.152344 63.328125 20.140625 63.316406 20.128906 C 63.132812 20.003906 61.886719 19.175781 61.699219 19.890625 C 61.492188 20.65625 61.644531 23.574219 61.644531 23.574219 L 61.695312 24.441406 C 61.695312 24.480469 61.644531 24.507812 61.609375 24.480469 L 59.710938 23.007812 C 59.683594 22.984375 59.636719 23.003906 59.632812 23.035156 L 59.296875 24.3125 C 59.292969 24.332031 59.273438 24.34375 59.257812 24.351562 L 58.488281 24.492188 C 58.476562 24.5 58.464844 24.492188 58.453125 24.488281 L 57.726562 24.101562 C 57.714844 24.097656 57.695312 24.097656 57.675781 24.105469 L 56.578125 24.90625 C 56.578125 24.90625 56.570312 24.90625 56.570312 24.90625 C 56.488281 24.941406 55.546875 25.324219 55.449219 25.523438 C 55.363281 25.6875 55.355469 26.023438 55.347656 26.140625 C 55.347656 26.171875 55.324219 26.191406 55.296875 26.191406 C 55.195312 26.191406 54.96875 26.179688 54.890625 25.984375 C 54.785156 25.738281 54.828125 25.082031 54.832031 25.015625 C 54.832031 25.007812 54.832031 25.007812 54.832031 25.003906 L 54.804688 24.804688 C 54.796875 24.757812 54.734375 24.746094 54.714844 24.789062 L 54.328125 25.507812 C 54.320312 25.519531 54.320312 25.53125 54.320312 25.535156 L 54.476562 26.984375 C 54.476562 26.996094 54.46875 27.015625 54.464844 27.027344 L 53.773438 27.859375 C 53.765625 27.871094 53.75 27.875 53.734375 27.875 L 53.148438 27.824219 C 53.144531 27.824219 53.144531 27.824219 53.136719 27.824219 L 52.332031 27.585938 C 52.304688 27.582031 52.269531 27.605469 52.269531 27.632812 L 52.21875 28.59375 C 52.21875 28.59375 52.21875 28.851562 51.863281 28.59375 C 51.523438 28.351562 51.460938 27.882812 51.453125 27.832031 C 51.453125 27.824219 51.453125 27.824219 51.453125 27.820312 L 51.035156 26.476562 C 51.019531 26.429688 51.070312 26.390625 51.109375 26.414062 C 51.382812 26.589844 52.050781 27.007812 52.175781 27.007812 C 52.316406 27.007812 52.867188 26.738281 52.933594 26.703125 C 52.933594 26.703125 52.941406 26.695312 52.945312 26.695312 L 53.484375 26.203125 C 53.496094 26.191406 53.5 26.175781 53.496094 26.160156 L 53.300781 25.078125 C 53.296875 25.066406 53.289062 25.058594 53.285156 25.046875 C 53.1875 24.957031 52.507812 24.324219 52.277344 24.035156 C 52.042969 23.761719 51.109375 23.898438 50.921875 23.925781 C 50.90625 23.929688 50.882812 23.921875 50.871094 23.910156 L 50.605469 23.507812 C 50.59375 23.484375 50.59375 23.460938 50.605469 23.445312 L 51.058594 22.855469 C 51.082031 22.832031 51.070312 22.792969 51.042969 22.78125 L 49.199219 21.804688 C 49.171875 21.796875 49.136719 21.804688 49.125 21.835938 L 48.695312 22.839844 C 48.691406 22.847656 48.679688 22.859375 48.667969 22.867188 C 48.402344 22.953125 45.800781 23.808594 45.464844 24.242188 C 45.328125 24.40625 45.125 24.84375 44.921875 25.335938 L 45.121094 25.507812 C 45.652344 25.949219 46.015625 26.574219 46.152344 27.253906 L 47.917969 37.175781 C 48.34375 37.289062 48.75 37.40625 49.050781 37.503906 L 49.476562 37.632812 C 50.519531 37.96875 50.9375 39.175781 50.492188 40.582031 C 50.28125 41.238281 49.941406 41.757812 49.527344 42.082031 L 53.160156 43.238281 C 54.136719 43.542969 55.035156 44.007812 55.851562 44.605469 C 55.835938 44.570312 55.863281 44.523438 55.902344 44.53125 C 56.117188 44.554688 56.640625 44.625 56.679688 44.832031 C 56.695312 44.933594 56.714844 45.125 56.742188 45.328125 L 57.457031 45.953125 C 57.671875 45.941406 57.859375 45.925781 57.960938 45.851562 C 58.089844 45.765625 58.625 45.679688 58.789062 45.65625 C 58.808594 45.652344 58.832031 45.667969 58.839844 45.691406 L 59.027344 46.382812 C 59.03125 46.40625 59.046875 46.417969 59.070312 46.421875 L 60.96875 46.621094 C 60.976562 46.621094 60.984375 46.621094 60.992188 46.617188 L 61.808594 46.332031 C 61.832031 46.320312 61.859375 46.332031 61.871094 46.359375 L 62.300781 47.472656 C 62.3125 47.484375 62.304688 47.5 62.300781 47.511719 C 62.25 47.628906 61.988281 48.246094 62.3125 48.105469 C 62.605469 47.980469 62.96875 47.71875 63.089844 47.628906 C 63.109375 47.605469 63.144531 47.613281 63.164062 47.640625 L 63.585938 48.253906 C 63.59375 48.257812 63.59375 48.265625 63.59375 48.269531 L 64 50.253906 C 64 50.257812 64 50.257812 64 50.265625 L 64.816406 52.042969 C 64.816406 52.050781 64.824219 52.050781 64.824219 52.054688 C 64.863281 52.105469 65.179688 52.492188 65.179688 52.152344 C 65.179688 51.792969 65.796875 50.464844 65.796875 50.207031 L 65.796875 49.460938 C 65.796875 49.449219 65.796875 49.433594 65.808594 49.421875 L 66.710938 48.621094 C 66.714844 48.621094 66.714844 48.621094 66.722656 48.617188 L 68.898438 47.402344 C 68.910156 47.390625 68.925781 47.390625 68.941406 47.398438 L 69.667969 47.640625 C 69.679688 47.648438 69.691406 47.652344 69.695312 47.664062 L 70.34375 48.910156 C 70.347656 48.921875 70.359375 48.925781 70.371094 48.933594 L 71.042969 49.234375 C 66.609375 62.84375 53.804688 72.710938 38.734375 72.710938 C 33.15625 72.710938 27.894531 71.351562 23.242188 68.960938 L 23.269531 68.917969 C 23.273438 68.914062 23.273438 68.910156 23.28125 68.910156 L 24.921875 67.609375 C 24.921875 67.609375 24.921875 67.605469 24.929688 67.605469 L 26.074219 66.238281 C 26.078125 66.238281 26.078125 66.234375 26.078125 66.234375 L 27.148438 64.460938 L 28.378906 62.691406 C 28.378906 62.691406 28.378906 62.691406 28.386719 62.6875 C 28.4375 62.628906 29.535156 61.367188 29.6875 60.65625 C 29.84375 59.925781 30.613281 57.851562 30.535156 57.582031 C 30.453125 57.3125 30.074219 56.847656 29.957031 56.734375 C 29.84375 56.621094 28.804688 56.238281 28.5 56.125 C 28.234375 56.023438 27.78125 56.097656 27.648438 56.113281 C 27.625 56.117188 27.609375 56.105469 27.597656 56.089844 L 27.234375 55.484375 C 27.234375 55.472656 27.222656 55.46875 27.21875 55.460938 L 26.425781 55.066406 C 26.402344 55.054688 26.378906 55.058594 26.363281 55.074219 C 26.289062 55.160156 26.074219 55.394531 25.886719 55.394531 C 25.699219 55.394531 25.210938 55.34375 25.03125 55.324219 C 24.996094 55.320312 24.980469 55.28125 24.992188 55.25 C 25.046875 55.132812 25.179688 54.882812 25.347656 54.742188 C 25.574219 54.550781 25.960938 54.242188 25.847656 54.125 C 25.734375 54.011719 24.828125 53.335938 24.808594 53.320312 L 24.023438 52.644531 C 24.011719 52.632812 23.992188 52.632812 23.976562 52.640625 L 23.375 52.847656 C 23.359375 52.855469 23.34375 52.847656 23.332031 52.835938 L 22.777344 52.320312 C 22.777344 52.320312 22.769531 52.316406 22.769531 52.316406 L 22.242188 51.5625 C 22.238281 51.558594 22.230469 51.550781 22.226562 51.546875 C 22.15625 51.503906 21.753906 51.273438 21.546875 51.164062 C 21.3125 51.050781 20.816406 50.746094 20.621094 50.707031 C 20.445312 50.671875 19.550781 50.699219 19.410156 50.707031 C 19.398438 50.707031 19.386719 50.699219 19.382812 50.695312 L 18.921875 50.34375 C 18.90625 50.328125 18.882812 50.328125 18.867188 50.339844 L 17.828125 50.894531 C 17.824219 50.898438 17.816406 50.90625 17.8125 50.910156 C 17.761719 50.980469 17.414062 51.445312 17.164062 51.511719 C 16.933594 51.578125 16.667969 51.648438 16.605469 51.664062 C 16.59375 51.664062 16.582031 51.664062 16.578125 51.660156 L 15.738281 51.371094 C 15.71875 51.363281 15.699219 51.371094 15.6875 51.382812 C 15.589844 51.472656 15.222656 51.800781 15.050781 51.398438 C 14.875 50.96875 15.027344 50.542969 15.050781 50.480469 C 15.050781 50.480469 15.050781 50.472656 15.050781 50.46875 L 15.125 49.339844 C 15.132812 49.308594 15.101562 49.285156 15.074219 49.285156 L 13.25 49.285156 C 13.214844 49.285156 13.1875 49.246094 13.203125 49.210938 L 13.667969 48.214844 C 13.667969 48.214844 13.667969 48.207031 13.667969 48.203125 L 13.738281 47.828125 C 13.738281 47.789062 13.707031 47.761719 13.667969 47.769531 L 12.761719 48.027344 C 12.730469 48.039062 12.71875 48.089844 12.746094 48.117188 C 12.847656 48.214844 12.972656 48.402344 12.40625 48.402344 C 11.636719 48.402344 11.367188 48.480469 11.289062 48.367188 C 11.214844 48.257812 10.8125 46.976562 10.757812 46.808594 C 10.75 46.796875 10.757812 46.78125 10.761719 46.769531 C 10.835938 46.617188 11.363281 45.550781 11.289062 45.441406 C 11.222656 45.339844 11.5625 45.171875 11.625 45.140625 C 11.628906 45.136719 11.640625 45.136719 11.644531 45.136719 L 12.695312 45.136719 C 12.707031 45.136719 12.71875 45.128906 12.722656 45.125 L 13.460938 44.613281 C 13.472656 44.605469 13.488281 44.605469 13.5 44.605469 L 15.183594 45.128906 C 15.199219 45.136719 15.210938 45.140625 15.214844 45.160156 L 15.761719 46.496094 C 15.773438 46.53125 15.8125 46.542969 15.832031 46.519531 L 16.296875 46.191406 C 16.308594 46.179688 16.320312 46.164062 16.316406 46.144531 C 16.292969 45.964844 16.167969 45.015625 16.167969 44.597656 C 16.167969 44.140625 16.898438 43.367188 16.898438 43.367188 L 17.617188 42.609375 C 17.625 42.601562 17.628906 42.597656 17.628906 42.59375 L 18.082031 41.457031 C 18.089844 41.453125 18.089844 41.449219 18.09375 41.441406 L 18.96875 40.296875 C 18.96875 40.296875 18.972656 40.296875 18.972656 40.296875 C 19 40.25 19.515625 39.445312 19.703125 39.300781 C 19.847656 39.179688 20.429688 38.867188 20.707031 38.722656 C 19.144531 37.890625 17.648438 37.023438 16.234375 36.132812 C 16.214844 36.144531 16.183594 36.144531 16.167969 36.121094 L 16.132812 36.070312 C 14.304688 34.914062 12.609375 33.71875 11.066406 32.492188 C 8.375 30.347656 6.257812 28.160156 4.734375 26 C 3.769531 28.601562 3.089844 31.34375 2.742188 34.195312 C 0.0585938 56.210938 17.246094 75 38.734375 75 C 58.730469 75 75 58.730469 75 38.734375 C 75 17.238281 56.210938 0.0585938 34.195312 2.742188 " fill-opacity="1" fill-rule="nonzero"/><path fill="#8c52ff" d="M 59.019531 48.574219 C 59.027344 48.570312 59.035156 48.566406 59.042969 48.554688 C 59.097656 48.421875 59.53125 47.472656 59.285156 47.1875 C 59.054688 46.898438 58.328125 46.660156 58.226562 46.625 C 58.222656 46.625 58.222656 46.625 58.222656 46.625 C 58.792969 47.152344 59.015625 47.957031 58.800781 48.707031 L 59.019531 48.574219 " fill-opacity="1" fill-rule="nonzero"/><path fill="#8c52ff" d="M 40.726562 39.292969 L 41.222656 37.59375 C 41.324219 37.238281 41.386719 36.867188 41.40625 36.496094 L 41.230469 36.804688 C 41.222656 36.824219 41.199219 36.835938 41.167969 36.828125 L 40.476562 36.621094 C 40.457031 36.613281 40.433594 36.621094 40.421875 36.636719 L 39.992188 37.214844 C 39.984375 37.21875 39.972656 37.226562 39.96875 37.230469 L 39.613281 37.34375 C 39.570312 37.363281 39.566406 37.414062 39.59375 37.433594 L 40.210938 37.917969 L 40.800781 38.433594 C 40.820312 38.445312 40.824219 38.464844 40.820312 38.484375 L 40.601562 39.253906 L 40.726562 39.292969 " fill-opacity="1" fill-rule="nonzero"/><path fill="#8c52ff" d="M 34.597656 39.089844 L 32.625 38.890625 L 31.246094 33.867188 C 31.152344 33.507812 30.878906 33.226562 30.523438 33.113281 L 29.964844 32.9375 C 29.957031 32.949219 29.949219 32.949219 29.9375 32.957031 L 29.75 38.464844 C 29.75 38.546875 29.6875 38.609375 29.609375 38.601562 L 27.519531 38.578125 C 27.257812 38.578125 27.148438 38.921875 27.367188 39.066406 L 29.089844 40.25 C 29.152344 40.296875 29.167969 40.382812 29.128906 40.445312 L 26.101562 45.058594 C 26.109375 45.070312 26.113281 45.074219 26.113281 45.089844 L 26.667969 45.265625 C 27.027344 45.378906 27.410156 45.304688 27.699219 45.070312 L 31.71875 41.753906 L 33.445312 42.726562 C 34.058594 43.101562 34.714844 43.402344 35.40625 43.617188 L 40.363281 45.191406 L 39.316406 48.21875 C 39.128906 48.773438 38.863281 49.300781 38.523438 49.78125 L 32.535156 58.402344 C 32.464844 58.5 32.546875 58.632812 32.664062 58.625 L 34.097656 58.5 C 34.472656 58.46875 34.828125 58.304688 35.101562 58.050781 L 42.550781 50.667969 L 42.898438 50.320312 C 43.441406 50.566406 44.207031 50.84375 44.769531 51.019531 L 45.191406 51.15625 C 45.429688 51.226562 45.777344 50.824219 45.957031 50.242188 C 46.144531 49.664062 46.101562 49.132812 45.855469 49.050781 L 45.453125 48.925781 C 45.191406 48.84375 44.882812 48.75 44.570312 48.667969 L 46.214844 47.039062 L 51.433594 48.695312 C 52.46875 49.023438 53.5625 49.136719 54.644531 49.023438 L 56.890625 48.792969 C 57.460938 48.734375 57.695312 48.019531 57.257812 47.640625 L 55.550781 46.152344 C 54.734375 45.4375 53.777344 44.898438 52.742188 44.570312 L 47.515625 42.914062 L 47.113281 40.644531 C 47.421875 40.757812 47.726562 40.859375 47.988281 40.941406 L 48.390625 41.066406 C 48.632812 41.148438 48.972656 40.738281 49.160156 40.15625 C 49.339844 39.578125 49.296875 39.042969 49.050781 38.972656 L 48.628906 38.835938 C 48.066406 38.660156 47.289062 38.445312 46.699219 38.324219 L 46.617188 37.847656 L 44.773438 27.519531 C 44.699219 27.148438 44.507812 26.816406 44.21875 26.574219 L 43.117188 25.648438 C 43.023438 25.570312 42.882812 25.632812 42.882812 25.757812 L 42.8125 36.25 C 42.808594 36.839844 42.726562 37.425781 42.5625 37.984375 L 41.675781 41.0625 L 36.714844 39.492188 C 36.023438 39.269531 35.316406 39.140625 34.597656 39.089844 " fill-opacity="1" fill-rule="nonzero"/></svg>